<?xml version="1.0" standalone="no"?>
<!DOCTYPE svg PUBLIC "-//W3C//DTD SVG 20010904//EN"
 "http://www.w3.org/TR/2001/REC-SVG-20010904/DTD/svg10.dtd">
<svg version="1.0" xmlns="http://www.w3.org/2000/svg"
 width="200.000000pt" height="200.000000pt" viewBox="0 0 200.000000 200.000000"
 preserveAspectRatio="xMidYMid meet">

<g transform="translate(0.000000,200.000000) scale(0.100000,-0.100000)"
fill="#000000" stroke="none">
<path d="M976 1284 c-4 -9 -4 -19 -1 -22 3 -3 6 1 7 9 1 8 4 -40 8 -106 l5
-120 30 42 c17 24 37 41 48 40 11 -1 15 -7 12 -16 -4 -10 -2 -11 7 -4 17 13
104 17 111 5 3 -4 -41 -24 -99 -42 -57 -19 -104 -37 -104 -40 0 -4 29 -47 64
-96 36 -49 63 -90 61 -92 -4 -4 -83 46 -102 65 -7 6 -13 18 -13 25 0 10 -3 9
-10 -2 -6 -10 -10 4 -12 45 l-3 58 -105 35 c-58 19 -106 39 -108 44 -2 4 -12
8 -23 8 -14 0 -7 -12 32 -49 59 -57 70 -63 90 -49 12 8 12 9 -1 5 -8 -2 -26 7
-40 20 l-25 24 52 -23 52 -23 -41 -18 c-22 -9 -52 -20 -67 -24 l-26 -6 20 24
c20 24 20 24 -8 -1 l-29 -25 24 -6 c13 -4 35 -7 51 -8 32 -1 31 3 11 -73 -8
-33 -13 -62 -10 -65 3 -3 28 9 57 27 41 25 54 29 61 18 6 -9 8 -8 6 7 -2 12 4
21 15 23 14 3 17 -4 17 -35 l1 -38 17 32 17 32 63 -39 c34 -22 62 -36 62 -32
0 4 -7 32 -15 62 -21 80 -21 80 32 80 l47 0 -34 35 c-18 19 -32 36 -29 39 2 2
25 22 51 44 l46 40 -36 6 c-20 3 -52 6 -71 6 -33 0 -33 1 -27 36 4 19 10 42
13 50 3 8 0 14 -7 14 -6 0 -9 -3 -6 -8 2 -4 -9 -25 -25 -46 -25 -34 -29 -37
-35 -20 -4 10 -17 42 -30 71 -13 28 -24 57 -24 62 0 17 -17 13 -24 -5z m74
-144 c0 -4 -10 -15 -22 -26 -13 -10 -17 -12 -10 -4 6 8 12 18 12 23 0 4 -6 5
-12 1 -10 -6 -10 -4 0 7 15 16 16 33 0 23 -7 -5 -8 -3 -3 6 6 10 11 9 22 -5 7
-11 13 -22 13 -25z m88 -93 c-15 -12 -13 -16 18 -41 20 -15 34 -30 31 -32 -2
-2 -21 2 -42 9 -24 9 -34 16 -27 21 7 4 10 12 7 17 -9 13 -26 11 -22 -2 1 -7
-10 -15 -26 -20 -16 -4 -25 -4 -21 2 3 5 -1 9 -8 9 -7 0 12 11 42 24 65 28 70
29 48 13z m-158 -22 c0 -7 -130 -185 -135 -185 -5 0 28 114 34 120 3 3 6 14 6
25 0 14 11 23 40 31 47 15 55 16 55 9z m120 -50 c0 -8 -8 -15 -17 -14 -13 0
-14 2 -4 6 11 5 11 7 0 14 -11 7 -10 9 4 9 9 0 17 -7 17 -15z m-120 -45 c0 -4
-7 -13 -15 -20 -13 -11 -15 -8 -15 13 0 19 4 25 15 21 8 -4 15 -10 15 -14z
m127 14 c-3 -3 -12 -4 -19 -1 -8 3 -5 6 6 6 11 1 17 -2 13 -5z m-170 -46 c-3
-8 -6 -5 -6 6 -1 11 2 17 5 13 3 -3 4 -12 1 -19z"/>
<path d="M950 1220 c-9 -21 -18 -29 -28 -25 -12 4 -13 3 -3 -9 8 -10 9 -21 4
-31 -8 -13 -13 -10 -32 16 -13 17 -24 37 -25 45 -1 7 -6 17 -10 21 -5 4 -6 -7
-2 -26 3 -18 6 -40 6 -48 0 -8 4 -12 9 -8 5 3 12 1 15 -4 8 -13 -18 -21 -66
-21 -58 0 -44 -8 22 -12 30 -2 61 -7 67 -11 9 -6 11 -3 7 7 -3 8 3 19 15 25
13 7 18 17 14 28 -4 11 -3 14 5 9 8 -4 10 -2 6 8 -3 8 0 24 6 36 6 12 10 24 7
26 -2 3 -10 -9 -17 -26z"/>
<path d="M931 1108 c5 -10 11 -18 12 -18 2 0 3 8 3 18 0 10 -6 19 -13 19 -8 0
-9 -6 -2 -19z"/>
<path d="M970 821 c0 -5 5 -13 10 -16 6 -3 10 -2 10 4 0 5 -4 13 -10 16 -5 3
-10 2 -10 -4z"/>
<path d="M763 723 c9 -2 14 -9 11 -15 -4 -7 -2 -8 4 -4 7 4 20 -10 34 -38 12
-26 28 -46 36 -46 7 0 12 3 10 8 -44 91 -52 102 -82 101 -18 -1 -23 -3 -13 -6z"/>
<path d="M898 693 c10 -10 32 -29 48 -43 24 -20 23 -18 -5 13 -19 20 -30 37
-25 37 13 0 70 -60 76 -80 3 -8 7 9 9 38 3 35 0 52 -8 52 -7 0 -9 -9 -6 -22
l6 -23 -25 23 c-14 13 -37 22 -56 22 -31 0 -31 -1 -14 -17z"/>
<path d="M1045 700 c4 -6 11 -8 16 -5 5 4 9 -12 9 -34 0 -56 17 -52 22 4 3 44
2 45 -25 45 -17 0 -26 -4 -22 -10z"/>
<path d="M1116 704 c6 -2 9 -19 8 -37 l-3 -32 8 30 9 30 1 -27 c1 -16 -6 -31
-16 -37 -15 -9 -15 -10 -2 -11 39 0 54 61 20 80 -11 5 -23 10 -28 9 -4 0 -3
-3 3 -5z"/>
<path d="M1176 698 c3 -5 10 -5 16 -2 7 5 9 1 5 -9 -3 -9 -1 -19 5 -23 7 -5 8
-2 3 6 -5 9 -4 11 3 6 7 -4 12 -18 12 -32 0 -30 17 -32 22 -1 5 38 -14 67 -44
65 -15 -1 -24 -6 -22 -10z"/>
<path d="M1250 694 c0 -14 3 -14 15 -4 8 7 15 14 15 16 0 2 -7 4 -15 4 -8 0
-15 -7 -15 -16z"/>
<path d="M736 643 c-15 -20 -15 -23 -1 -23 8 0 15 7 15 16 0 12 7 15 29 12 18
-3 27 0 25 6 -7 19 -50 12 -68 -11z"/>
<path d="M895 630 c-3 -5 3 -10 15 -10 12 0 18 5 15 10 -3 6 -10 10 -15 10 -5
0 -12 -4 -15 -10z"/>
</g>
</svg>
